<svg width="177" height="54" viewBox="0 0 177 54" fill="none" xmlns="http://www.w3.org/2000/svg">
<g fill="#32479C">
  <path data-extra="t" d="M29.1077 42.6688V35.9651H20.6164V6.18712H13.8262V37.9218C13.8262 40.5457 15.9812 42.6729 18.6389 42.6719L29.1077 42.6688Z"/>
  <g data-extra="cruz">
    <path data-extra="top" d="M20.6183 12.8965H13.8281V6.19279H20.6183V12.8965Z" fill="#86C440"/>
    <path data-extra="bottom" d="M20.6183 26.2998H13.8281V19.5961H20.6183V26.2998Z" fill="#86C440"/>
    <path data-extra="center" d="M20.6183 19.5996H13.8281V12.8959H20.6183V19.5996Z" fill="#299C49"/>
    <path data-extra="left" d="M13.8283 19.5996H7.03809V12.8959H13.8283V19.5996Z" fill="#86C440"/>
    <path data-extra="right" d="M27.4132 19.5996H20.623V12.8959H27.4132V19.5996Z" fill="#86C440"/>
  </g>
  <path data-extra="o" d="M40.2771 22.2797C41.3971 21.855 42.6172 21.6825 43.8023 21.7959C47.3574 22.1166 50.3275 24.9898 50.7125 28.4799C50.9575 30.6815 50.2824 32.7942 48.8073 34.4234C47.3422 36.0325 45.2522 36.9558 43.0721 36.9558C42.1021 36.9558 41.1621 36.7829 40.2771 36.4375C43.3123 32.2218 43.3123 26.4954 40.2771 22.2797ZM57.1827 27.774C56.4474 21.2086 51.0725 16.0006 44.3972 15.3983C40.2172 15.0229 36.082 16.4694 33.0971 19.382C31.8067 20.6359 31.7968 22.7189 33.0819 24.0223L34.3468 25.2663C36.6319 27.5223 36.6319 31.1901 34.3468 33.446L33.052 34.7196C31.7868 35.9979 31.8019 38.0714 33.0971 39.3351C35.772 41.9417 39.3171 43.3779 43.0721 43.3779C47.1072 43.3779 50.9575 41.675 53.6476 38.7033C56.3377 35.7462 57.6276 31.7625 57.1827 27.774Z"/>
  <g data-extra="q" fill="#86C440">
    <path d="M72.6926 21.7612C73.6477 21.7612 74.6077 21.9388 75.4975 22.2795C74.0025 24.348 73.2125 26.7864 73.2125 29.3535C73.2125 31.9203 74.0025 34.3638 75.4975 36.4373C74.6177 36.7828 73.6777 36.9554 72.7077 36.9554C70.5276 36.9554 68.4376 36.0324 66.9725 34.4232C65.4922 32.7842 64.8175 30.6763 65.0624 28.4798C65.4523 24.9897 68.4276 22.1165 71.9775 21.7958C72.2126 21.771 72.4524 21.7612 72.6926 21.7612ZM81.4327 33.4456C80.3278 32.3548 79.7178 30.8985 79.7178 29.3535C79.7178 27.8082 80.3278 26.357 81.4327 25.2659L82.7278 23.9923C83.993 22.7089 83.9727 20.6405 82.6827 19.3819C79.6926 16.4693 75.6025 15.013 71.3775 15.3982C64.7073 16.0005 59.332 21.2081 58.5923 27.7739C58.147 31.7576 59.4373 35.7413 62.1274 38.7032C64.8175 41.6698 68.6726 43.373 72.7077 43.373C76.4575 43.373 80.0027 41.9364 82.6827 39.3299C83.9779 38.0713 83.9827 35.9879 82.6927 34.6896L81.4327 33.4456Z"/>
    <path d="M80.1325 41.0229L74.4024 33.9836C73.9172 33.3222 73.2074 32.8826 72.3923 32.7495C71.5523 32.6163 70.7623 32.8086 70.1024 33.2777C68.7271 34.255 68.4022 36.1557 69.3973 37.5328L75.1322 44.5722C75.6122 45.2288 76.3172 45.668 77.1272 45.8015C77.3024 45.8311 77.4723 45.8457 77.6423 45.8457C78.2775 45.8457 78.8975 45.6483 79.4274 45.2781C80.8076 44.3007 81.1276 42.4001 80.1325 41.0229Z"/>
  </g>
  <path data-extra="u" d="M98.7013 43.4512C95.4064 43.4512 92.1062 42.2812 89.5311 39.9414C87.256 37.878 85.9561 34.9504 85.9561 31.9149L85.9609 16.0589H92.6213L92.6162 31.9149C92.6162 33.1191 93.1313 34.2843 94.0311 35.0986C96.6764 37.5026 100.801 37.4829 103.416 35.0592C104.287 34.2547 104.792 33.1242 104.796 31.9444L104.911 16.0341L111.572 16.0834L111.457 31.9937C111.432 34.9654 110.162 37.8284 107.967 39.8575C105.377 42.2517 102.037 43.4512 98.7013 43.4512Z"/>
  <path data-extra="e" d="M137.144 31.229H119.279V26.253H121.424L121.199 28.5188H121.378C121.463 27.7783 121.778 27.2157 122.329 26.8305C122.874 26.4456 123.613 26.253 124.549 26.253H137.144V31.229ZM128.209 43.3975C125.449 43.3975 123.019 42.8098 120.914 41.6351C118.809 40.4601 117.163 38.841 115.974 36.7824C114.783 34.7238 114.188 32.3595 114.188 29.6986C114.188 26.7962 114.773 24.2637 115.934 22.1164C117.099 19.9641 118.704 18.2955 120.749 17.1007C122.799 15.9111 125.149 15.3186 127.809 15.3186C130.639 15.3186 133.044 15.9753 135.019 17.2886C136.999 18.6015 138.464 20.4478 139.414 22.8271C140.359 25.2115 140.694 28.0103 140.409 31.229H133.699V28.7658C133.699 26.0556 133.264 24.1057 132.389 22.9161C131.514 21.7265 130.089 21.1289 128.109 21.1289C125.799 21.1289 124.099 21.825 123.009 23.2123C121.919 24.5993 121.374 26.6481 121.374 29.3579C121.374 31.836 121.919 33.7516 123.009 35.1091C124.099 36.4618 125.699 37.1378 127.809 37.1378C129.144 37.1378 130.279 36.8517 131.229 36.279C132.179 35.7015 132.899 34.8719 133.399 33.791H140.509C139.844 37.0736 138.279 39.4977 135.809 41.0576C133.339 42.6175 130.804 43.3975 128.209 43.3975Z"/>
  <path data-extra="a" d="M153.293 38.1253C154.537 38.1253 155.593 37.9082 156.448 37.4737C157.303 37.0392 157.988 36.5406 158.493 35.9828C159.003 35.425 159.348 34.9562 159.528 34.5761C159.878 33.8552 160.083 33.0161 160.138 32.0534C160.198 31.0907 160.228 30.291 160.228 29.6494L162.348 31.0068C160.238 30.9229 158.528 30.8933 157.223 30.9083C155.918 30.9229 154.863 30.9772 154.067 31.0662C153.267 31.16 152.558 31.3574 151.942 31.6733C151.312 31.9991 150.828 32.3446 150.498 32.705C150.162 33.0654 149.917 33.4652 149.747 33.8997C149.583 34.3342 149.497 34.7734 149.497 35.2178C149.497 35.8248 149.652 36.3483 149.963 36.7824C150.267 37.2169 150.707 37.5525 151.272 37.7798C151.837 38.0118 152.508 38.1253 153.293 38.1253ZM151.843 43.3975C149.917 43.3975 148.282 43.0319 146.942 42.3016C145.602 41.5709 144.587 40.5936 143.897 39.3693C143.207 38.145 142.862 36.7923 142.862 35.3163C142.862 34.0872 143.027 32.9421 143.347 31.8805C143.672 30.8193 144.252 29.8321 145.082 28.9139C145.917 27.9957 147.053 27.2701 148.503 26.7469C150.348 26.0706 152.028 25.6905 153.543 25.6015C155.053 25.5077 156.448 25.4632 157.718 25.4632C158.993 25.4632 160.718 25.488 162.898 25.5372L160.328 26.0064C160.328 24.4315 159.943 23.2714 159.178 22.5309C158.413 21.7954 157.133 21.4251 155.337 21.4251C154.338 21.4251 153.298 21.6623 152.218 22.1409C151.138 22.6151 150.612 23.4049 150.648 24.5056H143.812C143.812 21.203 144.922 18.8485 147.142 17.4367C149.362 16.0249 152.092 15.319 155.337 15.319C157.718 15.319 159.828 15.6794 161.673 16.3999C163.523 17.1208 164.918 18.3695 165.868 20.1468C166.398 21.1289 166.713 22.1164 166.813 23.0989C166.913 24.086 166.963 25.187 166.963 26.4011V42.6569H161.028V41.8178C161.028 41.0328 161.203 40.3911 161.563 39.8975C161.918 39.4039 162.408 38.8461 163.023 38.2241L163.03 38.2313C161.285 40.4183 159.143 41.4031 157.623 42.2027C156.098 42.9976 154.173 43.3975 151.843 43.3975Z"/>
</g>
</svg>
